   <svg class="z-20" width="48" height="48" viewBox="0 0 48 48" fill="none" xmlns="http://www.w3.org/2000/svg">
                        <circle cx="24" cy="24" r="24" fill="#1F2937" />
                        <path d="M26 15V19C26 19.2652 26.1054 19.5196 26.2929 19.7071C26.4804 19.8946 26.7348 20 27 20H31" stroke="white" stroke-width="2.75" stroke-linecap="round" stroke-linejoin="round" />
                        <path d="M31 30V31C31 31.5304 30.7893 32.0391 30.4142 32.4142C30.0391 32.7893 29.5304 33 29 33H19C18.4696 33 17.9609 32.7893 17.5858 32.4142C17.2107 32.0391 17 31.5304 17 31V30" stroke="white" stroke-width="2.75" stroke-linecap="round" stroke-linejoin="round" />
                        <path d="M30 26H33M15 26H18H15ZM22.5 26H25.5H22.5Z" stroke="white" stroke-width="2.75" stroke-linecap="round" stroke-linejoin="round" />
                        <path d="M17 22V17C17 16.4696 17.2107 15.9609 17.5858 15.5858C17.9609 15.2107 18.4696 15 19 15H26L31 20V22" stroke="white" stroke-width="2.75" stroke-linecap="round" stroke-linejoin="round" />
                    </svg>