 <svg width="36" height="36" viewBox="0 0 36 36" fill="none" xmlns="http://www.w3.org/2000/svg">
                                    <path d="M18 15C20.4853 15 22.5 12.9853 22.5 10.5C22.5 8.01472 20.4853 6 18 6C15.5147 6 13.5 8.01472 13.5 10.5C13.5 12.9853 15.5147 15 18 15Z" stroke="#1F2937" stroke-width="2.75" stroke-linecap="round" stroke-linejoin="round" />
                                    <path d="M25.5 28.5C27.9853 28.5 30 26.4853 30 24C30 21.5147 27.9853 19.5 25.5 19.5C23.0147 19.5 21 21.5147 21 24C21 26.4853 23.0147 28.5 25.5 28.5Z" stroke="#1F2937" stroke-width="2.75" stroke-linecap="round" stroke-linejoin="round" />
                                    <path d="M10.5 28.5C12.9853 28.5 15 26.4853 15 24C15 21.5147 12.9853 19.5 10.5 19.5C8.01472 19.5 6 21.5147 6 24C6 26.4853 8.01472 28.5 10.5 28.5Z" stroke="#1F2937" stroke-width="2.75" stroke-linecap="round" stroke-linejoin="round" />
                                </svg>