  <svg width="24" height="24" viewBox="0 0 24 24" fill="none" xmlns="http://www.w3.org/2000/svg">
                            <path d="M5 5V21" stroke="white" stroke-width="2.75" stroke-linecap="round" stroke-linejoin="round" />
                            <path d="M19 5V14" stroke="white" stroke-width="2.75" stroke-linecap="round" stroke-linejoin="round" />
                            <path d="M5 4.99984C5.93464 4.08371 7.19124 3.57056 8.5 3.57056C9.80876 3.57056 11.0654 4.08371 12 4.99984C12.9346 5.91598 14.1912 6.42913 15.5 6.42913C16.8088 6.42913 18.0654 5.91598 19 4.99984" stroke="white" stroke-width="2.75" stroke-linecap="round" stroke-linejoin="round" />
                            <path d="M5 14.0001C5.93464 13.084 7.19124 12.5708 8.5 12.5708C9.80876 12.5708 11.0654 13.084 12 14.0001C12.9346 14.9162 14.1912 15.4294 15.5 15.4294C16.8088 15.4294 18.0654 14.9162 19 14.0001" stroke="white" stroke-width="2.75" stroke-linecap="round" stroke-linejoin="round" />
                        </svg>