<svg width="111" height="30" viewBox="0 0 111 30" fill="none" xmlns="http://www.w3.org/2000/svg">
<g style="mix-blend-mode:multiply">
<path d="M0.72 29V0.999998H10.28C13.56 0.999998 16.2533 1.58667 18.36 2.76C20.4933 3.90667 22.0667 5.53333 23.08 7.64C24.12 9.72 24.64 12.1733 24.64 15C24.64 17.8267 24.12 20.2933 23.08 22.4C22.0667 24.48 20.4933 26.1067 18.36 27.28C16.2533 28.4267 13.56 29 10.28 29H0.72ZM5.84 24.6H10.04C12.3867 24.6 14.24 24.2267 15.6 23.48C16.96 22.7067 17.9333 21.6133 18.52 20.2C19.1067 18.76 19.4 17.0267 19.4 15C19.4 13 19.1067 11.28 18.52 9.84C17.9333 8.4 16.96 7.29333 15.6 6.52C14.24 5.74667 12.3867 5.36 10.04 5.36H5.84V24.6ZM25.5606 29L35.8006 0.999998H41.5606L51.8006 29H46.3606L44.1206 22.52H33.2006L30.9206 29H25.5606ZM34.6006 18.52H42.7206L38.6406 6.88L34.6006 18.52ZM55.4075 29V0.999998H61.4875L70.4075 18.76L79.2075 0.999998H85.2875V29H80.1675V9.68L72.3675 25H68.3275L60.5275 9.68V29H55.4075ZM100.28 29.48C98.2267 29.48 96.4133 29.1333 94.84 28.44C93.2667 27.72 92.0267 26.7067 91.12 25.4C90.2133 24.0667 89.7467 22.4533 89.72 20.56H95.12C95.1733 21.8667 95.64 22.9733 96.52 23.88C97.4267 24.76 98.6667 25.2 100.24 25.2C101.6 25.2 102.68 24.88 103.48 24.24C104.28 23.5733 104.68 22.6933 104.68 21.6C104.68 20.4533 104.32 19.56 103.6 18.92C102.907 18.28 101.973 17.76 100.8 17.36C99.6267 16.96 98.3733 16.5333 97.04 16.08C94.88 15.3333 93.2267 14.3733 92.08 13.2C90.96 12.0267 90.4 10.4667 90.4 8.52C90.3733 6.86667 90.76 5.45333 91.56 4.28C92.3867 3.08 93.5067 2.16 94.92 1.52C96.3333 0.853333 97.96 0.52 99.8 0.52C101.667 0.52 103.307 0.853333 104.72 1.52C106.16 2.18666 107.28 3.12 108.08 4.32C108.907 5.52 109.347 6.94667 109.4 8.6H103.92C103.893 7.61333 103.507 6.74666 102.76 6C102.04 5.22667 101.027 4.84 99.72 4.84C98.6 4.81333 97.6533 5.09333 96.88 5.68C96.1333 6.24 95.76 7.06667 95.76 8.16C95.76 9.09333 96.0533 9.84 96.64 10.4C97.2267 10.9333 98.0267 11.3867 99.04 11.76C100.053 12.1333 101.213 12.5333 102.52 12.96C103.907 13.44 105.173 14 106.32 14.64C107.467 15.28 108.387 16.1333 109.08 17.2C109.773 18.24 110.12 19.5867 110.12 21.24C110.12 22.7067 109.747 24.0667 109 25.32C108.253 26.5733 107.147 27.5867 105.68 28.36C104.213 29.1067 102.413 29.48 100.28 29.48Z" fill="url(#paint0_linear_102_235)"/>
</g>
<defs>
<linearGradient id="paint0_linear_102_235" x1="76" y1="-26" x2="76" y2="32" gradientUnits="userSpaceOnUse">
<stop offset="0.9375"/>
<stop offset="1" stop-opacity="0"/>
</linearGradient>
</defs>
</svg>
